<?xml version="1.0" standalone="yes"?>
<svg xmlns="http://www.w3.org/2000/svg" width="32" height="32">
<path style="fill:#e1efff; stroke:none;" d="M0 0L0 32L32 32L32 0L0 0z"/>
<path style="fill:#071c28; stroke:none;" d="M3 1L3 8L15 2L3 1z"/>
<path style="fill:#9703fe; stroke:none;" d="M3 8C11.4149 17.8165 19.3942 14.6649 29 9C20.1627 0.068573 12.7628 2.3018 3 8z"/>
<path style="fill:#071c28; stroke:none;" d="M17 1L17 2L29 8L29 1L17 1z"/>
<path style="fill:#b54fff; stroke:none;" d="M3 9L3 23L15 17L15 15L3 9z"/>
<path style="fill:#501da5; stroke:none;" d="M28 9L29 10L28 9M26 10L27 11L26 10z"/>
<path style="fill:#071c28; stroke:none;" d="M16 31L29 31L29 10C16.5892 13.6506 16 19.3779 16 31z"/>
<path style="fill:#501da5; stroke:none;" d="M24 11L25 12L24 11M22 12L23 13L22 12M21 13L22 14L21 13M19 14L20 15L19 14M17 15L18 16L17 15z"/>
<path style="fill:#071c28; stroke:none;" d="M3 24L3 31L15 31L15 30L3 24z"/>
</svg>
