<?xml version="1.0" encoding="utf-8"?>
<!-- Generator: Adobe Illustrator 23.0.3, SVG Export Plug-In . SVG Version: 6.00 Build 0)  -->
<svg version="1.1" id="Layer_1" xmlns="http://www.w3.org/2000/svg" xmlns:xlink="http://www.w3.org/1999/xlink" x="0px" y="0px"
	 viewBox="0 0 512 512" style="enable-background:new 0 0 512 512;" xml:space="preserve">
<style type="text/css">
	.st0{fill:#bb6868;}
	.st1{fill:#be9595;}
</style>
<path class="st0" d="M0,176c0,8.8,7.2,16,16,16h138.7c6.5,0,12.3-3.9,14.8-9.9c2.5-6,1.1-12.9-3.5-17.4l-60-60
	c39.3-39.1,92.5-62.1,150-62.1c117.6,0,213.3,95.7,213.3,213.3c0,11.8,9.5,21.3,21.3,21.3S512,267.8,512,256
	C512,114.8,397.2,0,256,0C187,0,122.8,27.4,75.6,74.3L27.3,26c-4.6-4.6-11.5-6-17.4-3.5C3.9,25,0,30.9,0,37.3V176z"/>
<path class="st1" d="M512,336c0-8.8-7.2-16-16-16H357.3c-6.5,0-12.3,3.9-14.8,9.9c-2.5,6-1.1,12.9,3.5,17.4l60,60
	c-39.3,39.1-92.5,62.1-150,62.1c-117.6,0-213.3-95.7-213.3-213.3c0-11.8-9.5-21.3-21.3-21.3S0,244.2,0,256
	c0,141.2,114.8,256,256,256c69,0,133.2-27.4,180.4-74.3l48.3,48.3c3.1,3.1,7.1,4.7,11.3,4.7c2.1,0,4.1-0.4,6.1-1.2
	c6-2.5,9.9-8.3,9.9-14.8V336z"/>
</svg>
